<svg width="422" height="230" viewBox="0 0 422 230" fill="none" xmlns="http://www.w3.org/2000/svg">
	<rect width="422" height="230" rx="3" fill="white" />
	<path d="M205.458 100.125H234.125M205.458 114.458H214.417M234.125 114.458H225.167M205.458 128.792H214.417M234.125 128.792H225.167" stroke="#286DE1" stroke-width="3.5" stroke-linecap="round" stroke-linejoin="round" />
	<path d="M192.917 98.3333H189.333C182.577 98.3333 179.198 98.3333 177.099 100.432C175 102.531 175 105.91 175 112.667V135.958C175 140.906 179.011 144.917 183.958 144.917C188.906 144.917 192.917 140.906 192.917 135.958V98.3333Z" stroke="#286DE1" stroke-width="3.5" stroke-linecap="round" stroke-linejoin="round" />
	<path d="M225.167 84H207.25C203.917 84 202.251 84 200.884 84.3663C197.175 85.3603 194.277 88.258 193.283 91.9677C192.917 93.3347 192.917 95.0009 192.917 98.3333V135.958C192.917 140.906 188.906 144.917 183.958 144.917H225.167C235.302 144.917 240.369 144.917 243.518 141.768C246.667 138.619 246.667 133.552 246.667 123.417V105.5C246.667 95.3648 246.667 90.2972 243.518 87.1486C240.369 84 235.302 84 225.167 84Z" stroke="#286DE1" stroke-width="3.5" stroke-linecap="round" stroke-linejoin="round" />
</svg>
