<svg width="138" height="45" viewBox="0 0 138 45" fill="none" xmlns="http://www.w3.org/2000/svg">
	<path d="M18.256 35.48C15.632 35.48 13.216 35.048 11.008 34.184C8.8 33.32 6.88 32.12 5.248 30.584C3.616 29.016 2.352 27.192 1.456 25.112C0.56 23 0.112 20.696 0.112 18.2C0.112 15.704 0.56 13.416 1.456 11.336C2.352 9.224 3.616 7.4 5.248 5.864C6.88 4.296 8.8 3.08 11.008 2.216C13.216 1.352 15.616 0.919998 18.208 0.919998C20.832 0.919998 23.232 1.352 25.408 2.216C27.616 3.08 29.536 4.296 31.168 5.864C32.8 7.4 34.064 9.224 34.96 11.336C35.856 13.416 36.304 15.704 36.304 18.2C36.304 20.696 35.856 23 34.96 25.112C34.064 27.224 32.8 29.048 31.168 30.584C29.536 32.12 27.616 33.32 25.408 34.184C23.232 35.048 20.848 35.48 18.256 35.48ZM18.208 30.008C19.904 30.008 21.472 29.72 22.912 29.144C24.352 28.568 25.6 27.752 26.656 26.696C27.712 25.608 28.528 24.36 29.104 22.952C29.712 21.512 30.016 19.928 30.016 18.2C30.016 16.472 29.712 14.904 29.104 13.496C28.528 12.056 27.712 10.808 26.656 9.752C25.6 8.664 24.352 7.832 22.912 7.256C21.472 6.68 19.904 6.392 18.208 6.392C16.512 6.392 14.944 6.68 13.504 7.256C12.096 7.832 10.848 8.664 9.76 9.752C8.704 10.808 7.872 12.056 7.264 13.496C6.688 14.904 6.4 16.472 6.4 18.2C6.4 19.896 6.688 21.464 7.264 22.904C7.872 24.344 8.704 25.608 9.76 26.696C10.816 27.752 12.064 28.568 13.504 29.144C14.944 29.72 16.512 30.008 18.208 30.008ZM53.8623 35.336C51.2383 35.336 48.9023 34.776 46.8543 33.656C44.8063 32.504 43.1903 30.936 42.0063 28.952C40.8223 26.968 40.2303 24.712 40.2303 22.184C40.2303 19.624 40.8223 17.368 42.0063 15.416C43.1903 13.432 44.8063 11.88 46.8543 10.76C48.9023 9.64 51.2383 9.08 53.8623 9.08C56.5183 9.08 58.8703 9.64 60.9183 10.76C62.9983 11.88 64.6143 13.416 65.7663 15.368C66.9503 17.32 67.5423 19.592 67.5423 22.184C67.5423 24.712 66.9503 26.968 65.7663 28.952C64.6143 30.936 62.9983 32.504 60.9183 33.656C58.8703 34.776 56.5183 35.336 53.8623 35.336ZM53.8623 30.2C55.3343 30.2 56.6463 29.88 57.7983 29.24C58.9503 28.6 59.8463 27.672 60.4863 26.456C61.1583 25.24 61.4943 23.816 61.4943 22.184C61.4943 20.52 61.1583 19.096 60.4863 17.912C59.8463 16.696 58.9503 15.768 57.7983 15.128C56.6463 14.488 55.3503 14.168 53.9103 14.168C52.4383 14.168 51.1263 14.488 49.9743 15.128C48.8543 15.768 47.9583 16.696 47.2863 17.912C46.6143 19.096 46.2783 20.52 46.2783 22.184C46.2783 23.816 46.6143 25.24 47.2863 26.456C47.9583 27.672 48.8543 28.6 49.9743 29.24C51.1263 29.88 52.4223 30.2 53.8623 30.2ZM87.4878 35.336C85.4078 35.336 83.5038 34.856 81.7758 33.896C80.0798 32.936 78.7198 31.496 77.6958 29.576C76.7038 27.624 76.2078 25.16 76.2078 22.184C76.2078 19.176 76.6878 16.712 77.6478 14.792C78.6398 12.872 79.9838 11.448 81.6797 10.52C83.3758 9.56 85.3118 9.08 87.4878 9.08C90.0158 9.08 92.2398 9.624 94.1598 10.712C96.1118 11.8 97.6478 13.32 98.7678 15.272C99.9198 17.224 100.496 19.528 100.496 22.184C100.496 24.84 99.9198 27.16 98.7678 29.144C97.6478 31.096 96.1118 32.616 94.1598 33.704C92.2398 34.792 90.0158 35.336 87.4878 35.336ZM73.2798 44.312V9.368H78.9918V15.416L78.7998 22.232L79.2798 29.048V44.312H73.2798ZM86.8158 30.2C88.2558 30.2 89.5358 29.88 90.6558 29.24C91.8078 28.6 92.7198 27.672 93.3918 26.456C94.0638 25.24 94.3998 23.816 94.3998 22.184C94.3998 20.52 94.0638 19.096 93.3918 17.912C92.7198 16.696 91.8078 15.768 90.6558 15.128C89.5358 14.488 88.2558 14.168 86.8158 14.168C85.3758 14.168 84.0798 14.488 82.9278 15.128C81.7758 15.768 80.8638 16.696 80.1918 17.912C79.5198 19.096 79.1838 20.52 79.1838 22.184C79.1838 23.816 79.5198 25.24 80.1918 26.456C80.8638 27.672 81.7758 28.6 82.9278 29.24C84.0798 29.88 85.3758 30.2 86.8158 30.2ZM114.106 35.336C111.962 35.336 109.898 35.064 107.914 34.52C105.962 33.944 104.41 33.256 103.258 32.456L105.562 27.896C106.714 28.632 108.09 29.24 109.69 29.72C111.29 30.2 112.89 30.44 114.49 30.44C116.378 30.44 117.738 30.184 118.57 29.672C119.434 29.16 119.866 28.472 119.866 27.608C119.866 26.904 119.578 26.376 119.002 26.024C118.426 25.64 117.674 25.352 116.746 25.16C115.818 24.968 114.778 24.792 113.626 24.632C112.506 24.472 111.37 24.264 110.218 24.008C109.098 23.72 108.074 23.32 107.146 22.808C106.218 22.264 105.466 21.544 104.89 20.648C104.314 19.752 104.026 18.568 104.026 17.096C104.026 15.464 104.49 14.056 105.418 12.872C106.346 11.656 107.642 10.728 109.306 10.088C111.002 9.416 113.002 9.08 115.306 9.08C117.034 9.08 118.778 9.272 120.538 9.656C122.298 10.04 123.754 10.584 124.906 11.288L122.602 15.848C121.386 15.112 120.154 14.616 118.906 14.36C117.69 14.072 116.474 13.928 115.258 13.928C113.434 13.928 112.074 14.2 111.178 14.744C110.314 15.288 109.882 15.976 109.882 16.808C109.882 17.576 110.17 18.152 110.746 18.536C111.322 18.92 112.074 19.224 113.002 19.448C113.93 19.672 114.954 19.864 116.074 20.024C117.226 20.152 118.362 20.36 119.482 20.648C120.602 20.936 121.626 21.336 122.554 21.848C123.514 22.328 124.282 23.016 124.858 23.912C125.434 24.808 125.722 25.976 125.722 27.416C125.722 29.016 125.242 30.408 124.282 31.592C123.354 32.776 122.026 33.704 120.298 34.376C118.57 35.016 116.506 35.336 114.106 35.336Z" fill="black" />
	<path d="M133.241 35.384C131.961 35.384 130.857 34.952 129.929 34.088C129.033 33.192 128.585 32.056 128.585 30.68C128.585 29.304 129.033 28.2 129.929 27.368C130.857 26.504 131.961 26.072 133.241 26.072C134.553 26.072 135.657 26.504 136.553 27.368C137.449 28.2 137.897 29.304 137.897 30.68C137.897 32.056 137.449 33.192 136.553 34.088C135.657 34.952 134.553 35.384 133.241 35.384Z" fill="#286DE1" />
</svg>
